<svg xmlns="http://www.w3.org/2000/svg" width="1800" height="1200" viewBox="0 0 1800 1200" fill="none">
  <defs>
    <linearGradient id="bg" x1="0" y1="0" x2="1800" y2="1200" gradientUnits="userSpaceOnUse">
      <stop offset="0" stop-color="#07111f" />
      <stop offset="0.55" stop-color="#0d1a2e" />
      <stop offset="1" stop-color="#0a1526" />
    </linearGradient>
    <radialGradient id="blueGlow" cx="0" cy="0" r="1" gradientUnits="userSpaceOnUse" gradientTransform="translate(240 240) rotate(90) scale(280 360)">
      <stop offset="0" stop-color="#60a5fa" stop-opacity="0.18" />
      <stop offset="1" stop-color="#60a5fa" stop-opacity="0" />
    </radialGradient>
    <radialGradient id="greenGlow" cx="0" cy="0" r="1" gradientUnits="userSpaceOnUse" gradientTransform="translate(1460 420) rotate(90) scale(320 420)">
      <stop offset="0" stop-color="#34d399" stop-opacity="0.16" />
      <stop offset="1" stop-color="#34d399" stop-opacity="0" />
    </radialGradient>
    <radialGradient id="purpleGlow" cx="0" cy="0" r="1" gradientUnits="userSpaceOnUse" gradientTransform="translate(900 940) rotate(90) scale(260 380)">
      <stop offset="0" stop-color="#a78bfa" stop-opacity="0.12" />
      <stop offset="1" stop-color="#a78bfa" stop-opacity="0" />
    </radialGradient>
    <filter id="shadow" x="-20%" y="-20%" width="140%" height="140%">
      <feDropShadow dx="0" dy="18" stdDeviation="24" flood-color="#000000" flood-opacity="0.28" />
    </filter>
    <filter id="softShadow" x="-20%" y="-20%" width="140%" height="140%">
      <feDropShadow dx="0" dy="8" stdDeviation="10" flood-color="#000000" flood-opacity="0.24" />
    </filter>
    <marker id="arrowBlue" viewBox="0 0 10 10" refX="9" refY="5" markerWidth="8" markerHeight="8" orient="auto">
      <path d="M 0 0 L 10 5 L 0 10 z" fill="#7dd3fc" />
    </marker>
    <marker id="arrowGreen" viewBox="0 0 10 10" refX="9" refY="5" markerWidth="8" markerHeight="8" orient="auto">
      <path d="M 0 0 L 10 5 L 0 10 z" fill="#34d399" />
    </marker>
    <style>
      .title { font: 700 42px/1.05 "Inter", "Aptos", "Segoe UI", sans-serif; fill: #f8fafc; letter-spacing: -0.04em; }
      .sub { font: 500 18px/1.35 "Inter", "Aptos", "Segoe UI", sans-serif; fill: #cbd5e1; }
      .section { font: 700 20px/1.2 "Inter", "Aptos", "Segoe UI", sans-serif; fill: #e2e8f0; letter-spacing: -0.02em; }
      .label { font: 600 16px/1.25 "Inter", "Aptos", "Segoe UI", sans-serif; fill: #edf4ff; }
      .small { font: 500 12px/1.35 "Inter", "Aptos", "Segoe UI", sans-serif; fill: #aab8cf; }
      .micro { font: 500 11px/1.35 "Inter", "Aptos", "Segoe UI", sans-serif; fill: #8da1bf; }
      .pill { font: 700 12px/1 "Inter", "Aptos", "Segoe UI", sans-serif; fill: #dbeafe; letter-spacing: 0.03em; }
    </style>
  </defs>

  <rect width="1800" height="1200" fill="url(#bg)" />
  <rect width="1800" height="1200" fill="url(#blueGlow)" />
  <rect width="1800" height="1200" fill="url(#greenGlow)" />
  <rect width="1800" height="1200" fill="url(#purpleGlow)" />

  <g opacity="0.07">
    <path d="M0 140H1800" stroke="#93c5fd" stroke-width="1" />
    <path d="M0 300H1800" stroke="#93c5fd" stroke-width="1" />
    <path d="M0 460H1800" stroke="#93c5fd" stroke-width="1" />
    <path d="M0 620H1800" stroke="#93c5fd" stroke-width="1" />
    <path d="M0 780H1800" stroke="#93c5fd" stroke-width="1" />
    <path d="M0 940H1800" stroke="#93c5fd" stroke-width="1" />
    <path d="M220 0V1200" stroke="#93c5fd" stroke-width="1" />
    <path d="M520 0V1200" stroke="#93c5fd" stroke-width="1" />
    <path d="M820 0V1200" stroke="#93c5fd" stroke-width="1" />
    <path d="M1120 0V1200" stroke="#93c5fd" stroke-width="1" />
    <path d="M1420 0V1200" stroke="#93c5fd" stroke-width="1" />
    <path d="M1720 0V1200" stroke="#93c5fd" stroke-width="1" />
  </g>

  <text x="72" y="92" class="title">memd codebase map</text>
  <text x="72" y="124" class="sub">grouped by responsibility: integrations, client, shared crates, runtime services, and docs</text>

  <g filter="url(#shadow)">
    <rect x="60" y="170" width="1680" height="960" rx="34" fill="#0b1528" stroke="#243b5c" stroke-opacity="0.8" stroke-width="2" />
  </g>

  <g filter="url(#softShadow)">
    <rect x="96" y="220" width="260" height="800" rx="26" fill="#0f1f3a" stroke="#60a5fa" stroke-opacity="0.55" />
    <rect x="384" y="220" width="320" height="800" rx="26" fill="#10213f" stroke="#7dd3fc" stroke-opacity="0.55" />
    <rect x="732" y="220" width="360" height="800" rx="26" fill="#10263c" stroke="#4fd1c5" stroke-opacity="0.58" />
    <rect x="1120" y="220" width="320" height="800" rx="26" fill="#0f2d29" stroke="#34d399" stroke-opacity="0.58" />
    <rect x="1468" y="220" width="216" height="800" rx="26" fill="#13284a" stroke="#93c5fd" stroke-opacity="0.48" />
  </g>

  <text x="124" y="264" class="section">Integrations</text>
  <text x="124" y="288" class="small">entry points + harness packs</text>
  <g filter="url(#softShadow)">
    <rect x="120" y="328" width="212" height="82" rx="18" fill="#13284a" stroke="#93c5fd" stroke-opacity="0.44" />
    <text x="140" y="360" class="label">Harness packs</text>
    <text x="140" y="384" class="micro">Codex, Claude Code, OpenClaw</text>

    <rect x="120" y="426" width="212" height="82" rx="18" fill="#13284a" stroke="#93c5fd" stroke-opacity="0.44" />
    <text x="140" y="458" class="label">Harness packs</text>
    <text x="140" y="482" class="micro">Hermes, Agent Zero, OpenCode</text>

    <rect x="120" y="526" width="212" height="92" rx="18" fill="#13284a" stroke="#93c5fd" stroke-opacity="0.44" />
    <text x="140" y="558" class="label">Hooks</text>
    <text x="140" y="582" class="micro">capture · spill · context</text>
    <text x="140" y="604" class="micro">shell and PowerShell</text>

    <rect x="120" y="636" width="212" height="86" rx="18" fill="#13284a" stroke="#93c5fd" stroke-opacity="0.44" />
    <text x="140" y="668" class="label">README / docs</text>
    <text x="140" y="692" class="micro">landing page and guidance</text>

    <rect x="120" y="738" width="212" height="112" rx="18" fill="#13284a" stroke="#93c5fd" stroke-opacity="0.44" />
    <text x="140" y="770" class="label">Integrations</text>
    <text x="140" y="794" class="micro">claude-code · codex</text>
    <text x="140" y="816" class="micro">openclaw · hermes</text>
    <text x="140" y="838" class="micro">agent-zero · opencode</text>
  </g>

  <text x="412" y="264" class="section">Client</text>
  <text x="412" y="288" class="small">CLI + rendering + harness glue</text>
  <g filter="url(#softShadow)">
    <rect x="408" y="328" width="272" height="112" rx="22" fill="#13284a" stroke="#7dd3fc" stroke-opacity="0.46" />
    <text x="430" y="360" class="label">memd-client</text>
    <text x="430" y="384" class="micro">main CLI entrypoint</text>
    <text x="430" y="406" class="micro">commands, render, obsidian</text>

    <rect x="408" y="462" width="272" height="112" rx="22" fill="#10213f" stroke="#7dd3fc" stroke-opacity="0.40" />
    <text x="430" y="494" class="label">Harness modules</text>
    <text x="430" y="518" class="micro">codex · claude_code · openclaw</text>
    <text x="430" y="540" class="micro">hermes · agent_zero · opencode</text>

    <rect x="408" y="596" width="272" height="112" rx="22" fill="#10213f" stroke="#7dd3fc" stroke-opacity="0.40" />
    <text x="430" y="628" class="label">Local UX</text>
    <text x="430" y="652" class="micro">command catalog · render</text>
    <text x="430" y="674" class="micro">bundle setup · obsidian sync</text>

    <rect x="408" y="730" width="272" height="132" rx="22" fill="#10213f" stroke="#7dd3fc" stroke-opacity="0.40" />
    <text x="430" y="762" class="label">Cache and presets</text>
    <text x="430" y="786" class="micro">index · cache · preset</text>
    <text x="430" y="808" class="micro">shared pack data</text>
    <text x="430" y="830" class="micro">resume / handoff support</text>
  </g>

  <text x="760" y="264" class="section">Shared crates</text>
  <text x="760" y="288" class="small">contracts and reusable libraries</text>
  <g filter="url(#softShadow)">
    <rect x="756" y="326" width="292" height="88" rx="18" fill="#10213f" stroke="#4fd1c5" stroke-opacity="0.46" />
    <text x="778" y="358" class="label">memd-schema</text>
    <text x="778" y="382" class="micro">shared data model + API contracts</text>

    <rect x="756" y="430" width="292" height="88" rx="18" fill="#10213f" stroke="#4fd1c5" stroke-opacity="0.46" />
    <text x="778" y="462" class="label">memd-core</text>
    <text x="778" y="486" class="micro">compaction and spill packet logic</text>

    <rect x="756" y="534" width="292" height="88" rx="18" fill="#10213f" stroke="#4fd1c5" stroke-opacity="0.46" />
    <text x="778" y="566" class="label">memd-multimodal</text>
    <text x="778" y="590" class="micro">ingest planning and chunking</text>

    <rect x="756" y="638" width="292" height="88" rx="18" fill="#10213f" stroke="#4fd1c5" stroke-opacity="0.46" />
    <text x="778" y="670" class="label">memd-rag</text>
    <text x="778" y="694" class="micro">semantic client and retrieval</text>

    <rect x="756" y="742" width="292" height="136" rx="20" fill="#10213f" stroke="#4fd1c5" stroke-opacity="0.46" />
    <text x="778" y="774" class="label">memd-server</text>
    <text x="778" y="798" class="micro">HTTP API and control plane</text>
    <text x="778" y="820" class="micro">store · routing · working</text>
    <text x="778" y="842" class="micro">repair · inspection</text>
  </g>

  <text x="1148" y="264" class="section">Runtime services</text>
  <text x="1148" y="288" class="small">what runs around the core</text>
  <g filter="url(#softShadow)">
    <rect x="1144" y="328" width="272" height="96" rx="18" fill="#113631" stroke="#34d399" stroke-opacity="0.48" />
    <text x="1166" y="360" class="label">memd-sidecar</text>
    <text x="1166" y="384" class="micro">RAG bridge and backend health</text>
    <text x="1166" y="406" class="micro">multimodal / semantic adapter</text>

    <rect x="1144" y="442" width="272" height="96" rx="18" fill="#113631" stroke="#34d399" stroke-opacity="0.48" />
    <text x="1166" y="474" class="label">memd-worker</text>
    <text x="1166" y="498" class="micro">verify · decay · consolidate</text>
    <text x="1166" y="520" class="micro">background maintenance loop</text>

    <rect x="1144" y="556" width="272" height="116" rx="18" fill="#113631" stroke="#34d399" stroke-opacity="0.48" />
    <text x="1166" y="588" class="label">External backend</text>
    <text x="1166" y="612" class="micro">LightRAG / RAGAnything / MinerU</text>
    <text x="1166" y="634" class="micro">semantic storage + multimodal ingest</text>

    <rect x="1144" y="694" width="272" height="108" rx="18" fill="#113631" stroke="#34d399" stroke-opacity="0.48" />
    <text x="1166" y="726" class="label">Obsidian</text>
    <text x="1166" y="750" class="micro">vault graph and linked pages</text>
    <text x="1166" y="772" class="micro">human-readable memory surface</text>
  </g>

  <text x="1494" y="264" class="section">Docs</text>
  <text x="1494" y="288" class="small">specs and operating rules</text>
  <g filter="url(#softShadow)">
    <rect x="1484" y="328" width="184" height="92" rx="18" fill="#13284a" stroke="#93c5fd" stroke-opacity="0.44" />
    <text x="1506" y="360" class="label">docs/</text>
    <text x="1506" y="384" class="micro">api · setup · rag</text>
    <text x="1506" y="406" class="micro">architecture · efficiency</text>

    <rect x="1484" y="440" width="184" height="92" rx="18" fill="#13284a" stroke="#93c5fd" stroke-opacity="0.44" />
    <text x="1506" y="472" class="label">verification/</text>
    <text x="1506" y="496" class="micro">milestones · runbook</text>
    <text x="1506" y="518" class="micro">audit rules</text>

    <rect x="1484" y="552" width="184" height="92" rx="18" fill="#13284a" stroke="#93c5fd" stroke-opacity="0.44" />
    <text x="1506" y="584" class="label">superpowers/</text>
    <text x="1506" y="608" class="micro">plans · specs</text>
    <text x="1506" y="630" class="micro">design docs</text>

    <rect x="1484" y="664" width="184" height="92" rx="18" fill="#13284a" stroke="#93c5fd" stroke-opacity="0.44" />
    <text x="1506" y="696" class="label">integrations/</text>
    <text x="1506" y="720" class="micro">hooks · codex</text>
    <text x="1506" y="742" class="micro">claude · hermes</text>

    <rect x="1484" y="780" width="184" height="116" rx="18" fill="#13284a" stroke="#93c5fd" stroke-opacity="0.44" />
    <text x="1506" y="812" class="label">Visible docs</text>
    <text x="1506" y="836" class="micro">README, architecture, API</text>
    <text x="1506" y="858" class="micro">landing page and map</text>
    <text x="1506" y="880" class="micro">policy / workflow / notes</text>
  </g>

  <g stroke-linecap="round" stroke-linejoin="round" fill="none">
    <path d="M332 368 C360 368, 372 368, 408 368" stroke="#7dd3fc" stroke-width="3" marker-end="url(#arrowBlue)" />
    <path d="M332 468 C360 468, 372 468, 408 468" stroke="#7dd3fc" stroke-width="3" marker-end="url(#arrowBlue)" />
    <path d="M332 568 C360 568, 372 568, 408 568" stroke="#7dd3fc" stroke-width="3" marker-end="url(#arrowBlue)" />
    <path d="M332 678 C360 678, 372 678, 408 678" stroke="#7dd3fc" stroke-width="3" marker-end="url(#arrowBlue)" />
    <path d="M332 790 C360 790, 372 790, 408 790" stroke="#7dd3fc" stroke-width="3" marker-end="url(#arrowBlue)" />

    <path d="M680 388 C708 388, 718 388, 756 388" stroke="#7dd3fc" stroke-width="3" marker-end="url(#arrowBlue)" />
    <path d="M680 520 C708 520, 718 520, 756 520" stroke="#7dd3fc" stroke-width="3" marker-end="url(#arrowBlue)" />
    <path d="M680 654 C708 654, 718 654, 756 654" stroke="#7dd3fc" stroke-width="3" marker-end="url(#arrowBlue)" />
    <path d="M680 790 C708 790, 718 790, 756 790" stroke="#7dd3fc" stroke-width="3" marker-end="url(#arrowBlue)" />

    <path d="M1048 388 C1080 388, 1090 388, 1144 388" stroke="#4fd1c5" stroke-width="3" marker-end="url(#arrowBlue)" />
    <path d="M1048 494 C1080 494, 1090 494, 1144 494" stroke="#4fd1c5" stroke-width="3" marker-end="url(#arrowBlue)" />
    <path d="M1048 612 C1080 612, 1090 612, 1144 612" stroke="#4fd1c5" stroke-width="3" marker-end="url(#arrowBlue)" />
    <path d="M1048 750 C1080 750, 1090 750, 1144 750" stroke="#4fd1c5" stroke-width="3" marker-end="url(#arrowBlue)" />

    <path d="M1416 382 C1440 382, 1450 382, 1484 382" stroke="#34d399" stroke-width="3" marker-end="url(#arrowGreen)" />
    <path d="M1416 494 C1440 494, 1450 494, 1484 494" stroke="#34d399" stroke-width="3" marker-end="url(#arrowGreen)" />
    <path d="M1416 612 C1440 612, 1450 612, 1484 612" stroke="#34d399" stroke-width="3" marker-end="url(#arrowGreen)" />
    <path d="M1416 748 C1440 748, 1450 748, 1484 748" stroke="#34d399" stroke-width="3" marker-end="url(#arrowGreen)" />
  </g>
</svg>
